<?xml version="1.0" encoding="UTF-8" standalone="no"?>
<svg
   xmlns:dc="http://purl.org/dc/elements/1.1/"
   xmlns:cc="http://creativecommons.org/ns#"
   xmlns:rdf="http://www.w3.org/1999/02/22-rdf-syntax-ns#"
   xmlns:svg="http://www.w3.org/2000/svg"
   xmlns="http://www.w3.org/2000/svg"
   xmlns:sodipodi="http://sodipodi.sourceforge.net/DTD/sodipodi-0.dtd"
   xmlns:inkscape="http://www.inkscape.org/namespaces/inkscape"
   class="icon"
   height="128"
   viewBox="0 0 128 256"
   version="1.1"
   id="svg4"
   sodipodi:docname="theme-switcher-symbolic.svg"
   width="128"
   inkscape:version="0.92.4 (unknown)">
  <metadata
     id="metadata10">
    <rdf:RDF>
      <cc:Work
         rdf:about="">
        <dc:format>image/svg+xml</dc:format>
        <dc:type
           rdf:resource="http://purl.org/dc/dcmitype/StillImage" />
        <dc:title></dc:title>
      </cc:Work>
    </rdf:RDF>
  </metadata>
  <defs
     id="defs8" />
  <sodipodi:namedview
     pagecolor="#ffffff"
     bordercolor="#666666"
     borderopacity="1"
     objecttolerance="10"
     gridtolerance="10"
     guidetolerance="10"
     inkscape:pageopacity="0"
     inkscape:pageshadow="2"
     inkscape:window-width="1280"
     inkscape:window-height="976"
     id="namedview6"
     showgrid="false"
     inkscape:zoom="1.3037281"
     inkscape:cx="31.678549"
     inkscape:cy="72.024496"
     inkscape:window-x="-3"
     inkscape:window-y="-3"
     inkscape:window-maximized="1"
     inkscape:current-layer="svg4" />
  <path
     d="m 14.50667,22.666666 c -19.09333,12.26667 -32,33.92 -32,58.66667 0,24.746664 12.90667,46.399994 32.32,58.666664 C -17.92,140 -44.16,113.76 -44.16,81.333336 a 58.666668,58.666667 0 0 1 58.66667,-58.66667 m 123.41333,16 15.25334,15.25334 L -12.90666,220 -28.16,204.74666 137.92,38.666666 m -65.92,25.92 -15.78666,-9.92 -15.36,10.66667 4.48,-18.13333 -14.82667,-11.30667 18.66667,-1.28 6.18666,-17.6 7.14667,17.38667 18.45333,0.32 -14.4,12.05333 5.44,17.81333 M 36.8,103.09334 24.42667,95.306666 12.48,103.62666 16.10667,89.546666 4.48,80.693336 l 14.50667,-0.96 4.8,-13.76 5.44,13.54667 14.50667,0.32 -11.2,9.28 L 36.8,103.09334 m 100.37334,42.23999 A 58.666668,58.666667 0 0 1 78.50667,204 C 65.49334,204 53.44,199.73333 43.73334,192.58666 L 125.76,110.56 c 7.14667,9.70666 11.41334,21.76 11.41334,34.77333 M 90.24,215.52 l 29.54667,-12.26667 -2.56,35.73333 L 90.24,215.52 m 46.18667,-28.8 12.26667,-29.54667 23.46666,27.09333 -35.73333,2.45334 m 12.26667,-52.90667 -12.16,-29.65333 35.62666,2.56 -23.46666,27.09333 m -111.46667,69.44 29.54667,12.26667 -26.98667,23.36 z"
     fill=""
     id="path2"
     inkscape:connector-curvature="0"
     style="stroke-width:0.25" />
</svg>
